<svg width="196" height="21" viewBox="0 0 196 21" fill="none" xmlns="http://www.w3.org/2000/svg">
<path d="M22.7138 1.722C23.1298 1.722 23.5111 1.88667 23.8578 2.216C24.2218 2.528 24.4038 2.92667 24.4038 3.412C24.4038 3.568 24.3778 3.74133 24.3258 3.932L19.2038 19.012C19.0998 19.3067 18.9178 19.5407 18.6578 19.714C18.3978 19.8873 18.1118 19.9827 17.7998 20C17.4878 20 17.1931 19.9133 16.9158 19.74C16.6384 19.5667 16.4218 19.3153 16.2658 18.986L12.5738 10.588L8.85576 18.986C8.69976 19.3153 8.48309 19.5667 8.20576 19.74C7.92842 19.9133 7.63376 20 7.32176 20C7.00976 19.9827 6.72376 19.8873 6.46376 19.714C6.20376 19.5407 6.02176 19.3067 5.91776 19.012L0.795758 3.932C0.743758 3.74133 0.717758 3.568 0.717758 3.412C0.717758 2.92667 0.891091 2.528 1.23776 2.216C1.60176 1.88667 2.00042 1.722 2.43376 1.722C2.78042 1.722 3.09242 1.81733 3.36976 2.008C3.64709 2.18133 3.83776 2.424 3.94176 2.736L7.81576 14.488L11.1958 6.376C11.3344 6.064 11.5338 5.82133 11.7938 5.648C12.0538 5.45733 12.3484 5.37067 12.6778 5.388C13.0071 5.37067 13.2931 5.45733 13.5358 5.648C13.7958 5.82133 13.9951 6.064 14.1338 6.376L17.3318 14.41L21.1798 2.736C21.2838 2.424 21.4744 2.18133 21.7518 2.008C22.0464 1.81733 22.3671 1.722 22.7138 1.722ZM38.6182 12.72C38.6009 13.136 38.4362 13.474 38.1242 13.734C37.8122 13.994 37.4482 14.124 37.0322 14.124H28.4522C28.6602 15.1467 29.1369 15.9527 29.8822 16.542C30.6276 17.114 31.4682 17.4 32.4042 17.4C33.1149 17.4 33.6696 17.3393 34.0682 17.218C34.4669 17.0793 34.7789 16.9407 35.0042 16.802C35.2469 16.646 35.4116 16.542 35.4982 16.49C35.8102 16.334 36.1049 16.256 36.3822 16.256C36.7462 16.256 37.0582 16.386 37.3182 16.646C37.5782 16.906 37.7082 17.2093 37.7082 17.556C37.7082 18.024 37.4656 18.4487 36.9802 18.83C36.4949 19.2287 35.8449 19.5667 35.0302 19.844C34.2156 20.1213 33.3922 20.26 32.5602 20.26C31.1042 20.26 29.8302 19.9567 28.7382 19.35C27.6636 18.7433 26.8316 17.9113 26.2422 16.854C25.6529 15.7793 25.3582 14.5747 25.3582 13.24C25.3582 11.7493 25.6702 10.4407 26.2942 9.314C26.9182 8.18733 27.7416 7.32933 28.7642 6.74C29.7869 6.13333 30.8789 5.83 32.0402 5.83C33.1842 5.83 34.2589 6.142 35.2642 6.766C36.2869 7.39 37.1016 8.23067 37.7082 9.288C38.3149 10.3453 38.6182 11.4893 38.6182 12.72ZM32.0402 8.69C30.0296 8.69 28.8422 9.63467 28.4782 11.524H35.2902V11.342C35.2209 10.614 34.8656 9.99 34.2242 9.47C33.5829 8.95 32.8549 8.69 32.0402 8.69ZM44.6003 18.414C44.6003 18.8647 44.4443 19.246 44.1323 19.558C43.8376 19.8527 43.4649 20 43.0143 20C42.5809 20 42.2169 19.8527 41.9223 19.558C41.6276 19.246 41.4803 18.8647 41.4803 18.414V2.346C41.4803 1.89533 41.6276 1.52267 41.9223 1.228C42.2343 0.915999 42.6156 0.76 43.0663 0.76C43.4996 0.76 43.8636 0.915999 44.1583 1.228C44.4529 1.52267 44.6003 1.89533 44.6003 2.346V18.414ZM54.0322 5.83C55.5055 5.83 56.6928 6.064 57.5942 6.532C58.4955 6.98267 58.9462 7.58933 58.9462 8.352C58.9462 8.73333 58.8335 9.07133 58.6082 9.366C58.3828 9.64333 58.0882 9.782 57.7242 9.782C57.4468 9.782 57.2215 9.74733 57.0482 9.678C56.8748 9.59133 56.7015 9.48733 56.5282 9.366C56.3722 9.22733 56.2162 9.11467 56.0602 9.028C55.8868 8.94133 55.6268 8.86333 55.2802 8.794C54.9508 8.72467 54.6822 8.69 54.4742 8.69C53.1742 8.69 52.1515 9.09733 51.4062 9.912C50.6782 10.7093 50.3142 11.758 50.3142 13.058C50.3142 14.306 50.6868 15.346 51.4322 16.178C52.1775 16.9927 53.1308 17.4 54.2922 17.4C55.1415 17.4 55.7742 17.296 56.1902 17.088C56.2942 17.036 56.4328 16.9493 56.6062 16.828C56.7968 16.6893 56.9702 16.5853 57.1262 16.516C57.2822 16.4467 57.4728 16.412 57.6982 16.412C58.1315 16.412 58.4695 16.5507 58.7122 16.828C58.9722 17.1053 59.1022 17.4607 59.1022 17.894C59.1022 18.31 58.8595 18.7 58.3742 19.064C57.8888 19.428 57.2475 19.7227 56.4502 19.948C55.6528 20.156 54.8035 20.26 53.9022 20.26C52.5675 20.26 51.3888 19.948 50.3662 19.324C49.3608 18.7 48.5808 17.842 48.0262 16.75C47.4715 15.6407 47.1942 14.41 47.1942 13.058C47.1942 11.654 47.4802 10.406 48.0522 9.314C48.6415 8.222 49.4562 7.37267 50.4962 6.766C51.5362 6.142 52.7148 5.83 54.0322 5.83ZM74.719 13.058C74.719 14.4447 74.407 15.6927 73.783 16.802C73.159 17.894 72.301 18.7433 71.209 19.35C70.1344 19.9567 68.947 20.26 67.647 20.26C66.3297 20.26 65.1337 19.9567 64.059 19.35C62.9844 18.7433 62.135 17.894 61.511 16.802C60.887 15.6927 60.575 14.4447 60.575 13.058C60.575 11.6713 60.887 10.432 61.511 9.34C62.135 8.23067 62.9844 7.37267 64.059 6.766C65.1337 6.142 66.3297 5.83 67.647 5.83C68.947 5.83 70.1344 6.142 71.209 6.766C72.301 7.37267 73.159 8.23067 73.783 9.34C74.407 10.432 74.719 11.6713 74.719 13.058ZM71.599 13.058C71.599 12.2087 71.417 11.4547 71.053 10.796C70.7064 10.12 70.2297 9.6 69.623 9.236C69.0337 8.872 68.375 8.69 67.647 8.69C66.919 8.69 66.2517 8.872 65.645 9.236C65.0557 9.6 64.579 10.12 64.215 10.796C63.8684 11.4547 63.695 12.2087 63.695 13.058C63.695 13.9073 63.8684 14.6613 64.215 15.32C64.579 15.9787 65.0557 16.49 65.645 16.854C66.2517 17.218 66.919 17.4 67.647 17.4C68.375 17.4 69.0337 17.218 69.623 16.854C70.2297 16.49 70.7064 15.9787 71.053 15.32C71.417 14.6613 71.599 13.9073 71.599 13.058ZM93.3677 5.83C95.0837 5.83 96.2711 6.35867 96.9297 7.416C97.5884 8.456 97.9177 9.90333 97.9177 11.758V18.414C97.9177 18.8647 97.7704 19.246 97.4757 19.558C97.1811 19.8527 96.8084 20 96.3577 20C95.9071 20 95.5344 19.8527 95.2397 19.558C94.9451 19.246 94.7977 18.8647 94.7977 18.414V11.758C94.7977 10.8047 94.6071 10.0593 94.2257 9.522C93.8617 8.96733 93.2117 8.69 92.2757 8.69C91.3051 8.69 90.5424 8.98467 89.9877 9.574C89.4504 10.146 89.1817 10.874 89.1817 11.758V18.414C89.1817 18.8647 89.0344 19.246 88.7397 19.558C88.4451 19.8527 88.0724 20 87.6217 20C87.1711 20 86.7984 19.8527 86.5037 19.558C86.2091 19.246 86.0617 18.8647 86.0617 18.414V11.758C86.0617 10.8047 85.8711 10.0593 85.4897 9.522C85.1257 8.96733 84.4757 8.69 83.5397 8.69C82.5691 8.69 81.8064 8.98467 81.2517 9.574C80.7144 10.146 80.4457 10.874 80.4457 11.758V18.414C80.4457 18.8647 80.2984 19.246 80.0037 19.558C79.7091 19.8527 79.3364 20 78.8857 20C78.4351 20 78.0624 19.8527 77.7677 19.558C77.4731 19.246 77.3257 18.8647 77.3257 18.414V7.676C77.3257 7.22533 77.4731 6.85267 77.7677 6.558C78.0624 6.246 78.4351 6.09 78.8857 6.09C79.3364 6.09 79.7091 6.246 80.0037 6.558C80.2984 6.85267 80.4457 7.22533 80.4457 7.676V8.092C80.9137 7.468 81.5031 6.93933 82.2137 6.506C82.9417 6.05533 83.7477 5.83 84.6317 5.83C86.8157 5.83 88.2111 6.78333 88.8177 8.69C89.2164 7.962 89.8144 7.30333 90.6117 6.714C91.4264 6.12467 92.3451 5.83 93.3677 5.83ZM113.774 12.72C113.757 13.136 113.592 13.474 113.28 13.734C112.968 13.994 112.604 14.124 112.188 14.124H103.608C103.816 15.1467 104.293 15.9527 105.038 16.542C105.784 17.114 106.624 17.4 107.56 17.4C108.271 17.4 108.826 17.3393 109.224 17.218C109.623 17.0793 109.935 16.9407 110.16 16.802C110.403 16.646 110.568 16.542 110.654 16.49C110.966 16.334 111.261 16.256 111.538 16.256C111.902 16.256 112.214 16.386 112.474 16.646C112.734 16.906 112.864 17.2093 112.864 17.556C112.864 18.024 112.622 18.4487 112.136 18.83C111.651 19.2287 111.001 19.5667 110.186 19.844C109.372 20.1213 108.548 20.26 107.716 20.26C106.26 20.26 104.986 19.9567 103.894 19.35C102.82 18.7433 101.988 17.9113 101.398 16.854C100.809 15.7793 100.514 14.5747 100.514 13.24C100.514 11.7493 100.826 10.4407 101.45 9.314C102.074 8.18733 102.898 7.32933 103.92 6.74C104.943 6.13333 106.035 5.83 107.196 5.83C108.34 5.83 109.415 6.142 110.42 6.766C111.443 7.39 112.258 8.23067 112.864 9.288C113.471 10.3453 113.774 11.4893 113.774 12.72ZM107.196 8.69C105.186 8.69 103.998 9.63467 103.634 11.524H110.446V11.342C110.377 10.614 110.022 9.99 109.38 9.47C108.739 8.95 108.011 8.69 107.196 8.69ZM130.372 17.062C130.614 17.062 130.831 17.1833 131.022 17.426C131.23 17.6513 131.334 17.9547 131.334 18.336C131.334 18.804 131.074 19.2027 130.554 19.532C130.051 19.844 129.479 20 128.838 20C127.763 20 126.853 19.7747 126.108 19.324C125.38 18.856 125.016 17.8767 125.016 16.386V9.21H123.82C123.404 9.21 123.057 9.07133 122.78 8.794C122.502 8.51667 122.364 8.17 122.364 7.754C122.364 7.35533 122.502 7.026 122.78 6.766C123.057 6.48867 123.404 6.35 123.82 6.35H125.016V4.686C125.016 4.23533 125.163 3.86267 125.458 3.568C125.77 3.256 126.151 3.1 126.602 3.1C127.035 3.1 127.399 3.256 127.694 3.568C127.988 3.86267 128.136 4.23533 128.136 4.686V6.35H129.982C130.398 6.35 130.744 6.48867 131.022 6.766C131.299 7.04333 131.438 7.39 131.438 7.806C131.438 8.20467 131.299 8.54267 131.022 8.82C130.744 9.08 130.398 9.21 129.982 9.21H128.136V16.256C128.136 16.62 128.231 16.8887 128.422 17.062C128.612 17.218 128.872 17.296 129.202 17.296C129.34 17.296 129.531 17.2613 129.774 17.192C129.982 17.1053 130.181 17.062 130.372 17.062ZM147.539 13.058C147.539 14.4447 147.227 15.6927 146.603 16.802C145.979 17.894 145.121 18.7433 144.029 19.35C142.955 19.9567 141.767 20.26 140.467 20.26C139.15 20.26 137.954 19.9567 136.879 19.35C135.805 18.7433 134.955 17.894 134.331 16.802C133.707 15.6927 133.395 14.4447 133.395 13.058C133.395 11.6713 133.707 10.432 134.331 9.34C134.955 8.23067 135.805 7.37267 136.879 6.766C137.954 6.142 139.15 5.83 140.467 5.83C141.767 5.83 142.955 6.142 144.029 6.766C145.121 7.37267 145.979 8.23067 146.603 9.34C147.227 10.432 147.539 11.6713 147.539 13.058ZM144.419 13.058C144.419 12.2087 144.237 11.4547 143.873 10.796C143.527 10.12 143.05 9.6 142.443 9.236C141.854 8.872 141.195 8.69 140.467 8.69C139.739 8.69 139.072 8.872 138.465 9.236C137.876 9.6 137.399 10.12 137.035 10.796C136.689 11.4547 136.515 12.2087 136.515 13.058C136.515 13.9073 136.689 14.6613 137.035 15.32C137.399 15.9787 137.876 16.49 138.465 16.854C139.072 17.218 139.739 17.4 140.467 17.4C141.195 17.4 141.854 17.218 142.443 16.854C143.05 16.49 143.527 15.9787 143.873 15.32C144.237 14.6613 144.419 13.9073 144.419 13.058ZM164.141 17.062C164.384 17.062 164.6 17.1833 164.791 17.426C164.999 17.6513 165.103 17.9547 165.103 18.336C165.103 18.804 164.843 19.2027 164.323 19.532C163.82 19.844 163.248 20 162.607 20C161.532 20 160.622 19.7747 159.877 19.324C159.149 18.856 158.785 17.8767 158.785 16.386V9.21H157.589C157.173 9.21 156.826 9.07133 156.549 8.794C156.272 8.51667 156.133 8.17 156.133 7.754C156.133 7.35533 156.272 7.026 156.549 6.766C156.826 6.48867 157.173 6.35 157.589 6.35H158.785V4.686C158.785 4.23533 158.932 3.86267 159.227 3.568C159.539 3.256 159.92 3.1 160.371 3.1C160.804 3.1 161.168 3.256 161.463 3.568C161.758 3.86267 161.905 4.23533 161.905 4.686V6.35H163.751C164.167 6.35 164.514 6.48867 164.791 6.766C165.068 7.04333 165.207 7.39 165.207 7.806C165.207 8.20467 165.068 8.54267 164.791 8.82C164.514 9.08 164.167 9.21 163.751 9.21H161.905V16.256C161.905 16.62 162 16.8887 162.191 17.062C162.382 17.218 162.642 17.296 162.971 17.296C163.11 17.296 163.3 17.2613 163.543 17.192C163.751 17.1053 163.95 17.062 164.141 17.062ZM175.378 5.83C177.094 5.83 178.281 6.35867 178.94 7.416C179.599 8.456 179.928 9.90333 179.928 11.758V18.414C179.928 18.8647 179.781 19.246 179.486 19.558C179.191 19.8527 178.819 20 178.368 20C177.917 20 177.545 19.8527 177.25 19.558C176.955 19.246 176.808 18.8647 176.808 18.414V11.758C176.808 10.8047 176.617 10.0593 176.236 9.522C175.872 8.96733 175.222 8.69 174.286 8.69C173.315 8.69 172.553 8.98467 171.998 9.574C171.461 10.146 171.192 10.874 171.192 11.758V18.414C171.192 18.8647 171.045 19.246 170.75 19.558C170.455 19.8527 170.083 20 169.632 20C169.181 20 168.809 19.8527 168.514 19.558C168.219 19.246 168.072 18.8647 168.072 18.414V2.346C168.072 1.89533 168.219 1.52267 168.514 1.228C168.809 0.915999 169.181 0.76 169.632 0.76C170.083 0.76 170.455 0.915999 170.75 1.228C171.045 1.52267 171.192 1.89533 171.192 2.346V8.092C171.66 7.468 172.249 6.93933 172.96 6.506C173.688 6.05533 174.494 5.83 175.378 5.83ZM195.786 12.72C195.769 13.136 195.604 13.474 195.292 13.734C194.98 13.994 194.616 14.124 194.2 14.124H185.62C185.828 15.1467 186.305 15.9527 187.05 16.542C187.796 17.114 188.636 17.4 189.572 17.4C190.283 17.4 190.838 17.3393 191.236 17.218C191.635 17.0793 191.947 16.9407 192.172 16.802C192.415 16.646 192.58 16.542 192.666 16.49C192.978 16.334 193.273 16.256 193.55 16.256C193.914 16.256 194.226 16.386 194.486 16.646C194.746 16.906 194.876 17.2093 194.876 17.556C194.876 18.024 194.634 18.4487 194.148 18.83C193.663 19.2287 193.013 19.5667 192.198 19.844C191.384 20.1213 190.56 20.26 189.728 20.26C188.272 20.26 186.998 19.9567 185.906 19.35C184.832 18.7433 184 17.9113 183.41 16.854C182.821 15.7793 182.526 14.5747 182.526 13.24C182.526 11.7493 182.838 10.4407 183.462 9.314C184.086 8.18733 184.91 7.32933 185.932 6.74C186.955 6.13333 188.047 5.83 189.208 5.83C190.352 5.83 191.427 6.142 192.432 6.766C193.455 7.39 194.27 8.23067 194.876 9.288C195.483 10.3453 195.786 11.4893 195.786 12.72ZM189.208 8.69C187.198 8.69 186.01 9.63467 185.646 11.524H192.458V11.342C192.389 10.614 192.034 9.99 191.392 9.47C190.751 8.95 190.023 8.69 189.208 8.69Z" fill="white"/>
</svg>
